HIERARCHY
ROOT Hips
{
  OFFSET -1.56614 0.00 -1.85809
  CHANNELS 6 Xposition Yposition Zposition Zrotation Xrotation Yrotation
  JOINT LHipJoint
  {
    OFFSET 0 0 0
    CHANNELS 3 Zrotation Xrotation Yrotation
    JOINT LeftUpLeg
    {
      OFFSET 1.8 -1.4 0.085
      CHANNELS 3 Zrotation Xrotation Yrotation
      JOINT LeftLeg
      {
        OFFSET 2.215 -6 0
        CHANNELS 3 Zrotation Xrotation Yrotation
        JOINT LeftFoot
        {
          OFFSET 2.5 -6.9 0
          CHANNELS 3 Zrotation Xrotation Yrotation
          JOINT LeftToeBase
          {
            OFFSET 0.2 -0.5 1.95
            CHANNELS 3 Zrotation Xrotation Yrotation
            End Site
            {
              OFFSET 0 0 1
            }
          }
        }
      }
    }
  }
  JOINT RHipJoint
  {
    OFFSET 0 0 0
    CHANNELS 3 Zrotation Xrotation Yrotation
    JOINT RightUpLeg
    {
      OFFSET -1.8 -1.4 0.085
      CHANNELS 3 Zrotation Xrotation Yrotation
      JOINT RightLeg
      {
        OFFSET -2.215 -6 0
        CHANNELS 3 Zrotation Xrotation Yrotation
        JOINT RightFoot
        {
          OFFSET -2.5 -6.9 0
          CHANNELS 3 Zrotation Xrotation Yrotation
          JOINT RightToeBase
          {
            OFFSET -0.2 -0.5 1.95
            CHANNELS 3 Zrotation Xrotation Yrotation
            End Site
            {
              OFFSET 0 0 1
            }
          }
        }
      }
    }
  }
  JOINT LowerBack
  {
    OFFSET 0 0 0
    CHANNELS 3 Zrotation Xrotation Yrotation
    JOINT Spine
    {
      OFFSET -0.087 1.94 -0.2889
      CHANNELS 3 Zrotation Xrotation Yrotation
      JOINT Spine1
      {
        OFFSET 0 1.95 0.06
        CHANNELS 3 Zrotation Xrotation Yrotation
        JOINT Neck
        {
          OFFSET 0 0 0
          CHANNELS 3 Zrotation Xrotation Yrotation
          JOINT Neck1
          {
            OFFSET 0 1.6 0.34
            CHANNELS 3 Zrotation Xrotation Yrotation
            JOINT Head
            {
              OFFSET 0 1.667 -0.24
              CHANNELS 3 Zrotation Xrotation Yrotation
              End Site
              {
                OFFSET 0 1.686 -0.12
              }
            }
          }
        }
        JOINT LeftShoulder
        {
          OFFSET 0 0 0
          CHANNELS 3 Zrotation Xrotation Yrotation
          JOINT LeftArm
          {
            OFFSET 2.7 1.55 -0.73
            CHANNELS 3 Zrotation Xrotation Yrotation
            JOINT LeftForeArm
            {
              OFFSET 5.45 0 0
              CHANNELS 3 Zrotation Xrotation Yrotation
              JOINT LeftHand
              {
                OFFSET 3.45 0 0
                CHANNELS 3 Zrotation Xrotation Yrotation
                JOINT LeftFingerBase
                {
                  OFFSET 0 0 0
                  CHANNELS 3 Zrotation Xrotation Yrotation
                  JOINT LeftHandIndex1
                  {
                    OFFSET 0.75 0 0
                    CHANNELS 3 Zrotation Xrotation Yrotation
                    End Site
                    {
                      OFFSET 0.6 0 0
                    }
                  }
                }
                JOINT LThumb
                {
                  OFFSET 0 0 0
                  CHANNELS 3 Zrotation Xrotation Yrotation
                  End Site
                  {
                    OFFSET 0.59 0 0.59
                  }
                }
              }
            }
          }
        }
        JOINT RightShoulder
        {
          OFFSET 0 0 0
          CHANNELS 3 Zrotation Xrotation Yrotation
          JOINT RightArm
          {
            OFFSET -2.7 1.55 -0.73
            CHANNELS 3 Zrotation Xrotation Yrotation
            JOINT RightForeArm
            {
              OFFSET -5.45 0 0
              CHANNELS 3 Zrotation Xrotation Yrotation
              JOINT RightHand
              {
                OFFSET -3.45 0 0
                CHANNELS 3 Zrotation Xrotation Yrotation
                JOINT RightFingerBase
                {
                  OFFSET 0 0 0
                  CHANNELS 3 Zrotation Xrotation Yrotation
                  JOINT RightHandIndex1
                  {
                    OFFSET -0.75 0 0
                    CHANNELS 3 Zrotation Xrotation Yrotation
                    End Site
                    {
                      OFFSET -0.6 0 0
                    }
                  }
                }
                JOINT RThumb
                {
                  OFFSET 0 0 0
                  CHANNELS 3 Zrotation Xrotation Yrotation
                  End Site
                  {
                    OFFSET -0.59 0 0.59
                  }
                }
              }
            }
          }
        }
      }
    }
  }
}
MOTION
Frames:	4
Frame Time:	0.00833333
0.0894576 18.2589 -3.43703 -0.00117705 -0.00051985 -0.00370095 -3.32587e-020 0 -0 -18.8944 -4.32025 0.696349 0.26805 7.68748 3.20404 -0.969072 -3.31215 -3.96791 -3.13633e-015 4.29954e-015 -2.50787e-014 -3.32587e-020 0 -0 21.5886 -7.0021 0.610675 -0.938883 9.45387 -14.6438 2.36922 -1.93341 14.2333 -3.58277e-015 1.97449e-014 9.98442e-014 -3.32587e-020 0 -0 0.0021538 0.00542391 0.00181593 0.00252934 -0.00273518 0.00130729 -0.00297325 -15.9979 0.00442084 -0.00449978 21.0021 0.00153486 0.00255617 10.9995 -0.00399752 0.308702 0.00142665 3.43795 -23.8975 -39.9382 -24.003 -8.50712 44.8155 0.00527488 4.3043 -1.74938 2.06268 3.33473e-008 -2.43609e-007 1.67066e-006 8.74147e-007 -7.19698e-008 -2.53835e-008 1.19271e-015 -9.93923e-017 -3.18055e-015 -0.270638 0.0385276 -2.9015 37.9782 -39.1125 42.1563 17.0015 2.00336 4.61692 -17.6871 -0.0794821 -12.2963 4.88131e-007 -2.62998e-007 5.03081e-007 -1.51879e-006 2.38566e-007 6.76415e-007 6.36111e-015 1.27222e-014 -0 
0.0893732 18.2597 -3.43606 -0.00669361 -0.00354996 -0.0203228 -1.81102e-018 -1.55301e-018 -0 -18.8639 -4.31758 0.735953 0.238646 7.66353 3.24076 -0.986546 -3.29251 -4.03358 -5.27025e-015 4.29949e-015 -2.50764e-014 -1.81102e-018 -1.55301e-018 -0 21.5799 -6.92611 0.584298 -0.937368 9.34789 -14.6014 2.4527 -1.94316 14.2298 -2.96064e-015 1.97542e-014 9.98458e-014 -1.81102e-018 -1.55301e-018 -0 0.0102021 0.0286516 0.00998013 0.0152288 -0.014484 0.00699125 -0.0212654 -15.989 0.00442065 -0.0241562 21.011 0.00844224 0.0142165 10.996 -0.0207425 0.308986 0.00142665 3.43817 -23.8775 -39.9385 -24.0011 -8.50876 44.7905 0.0052726 4.27397 -1.74548 2.0471 3.33473e-008 -2.43609e-007 1.67066e-006 8.74147e-007 -7.19699e-008 -2.53835e-008 2.45996e-015 1.98785e-016 -3.18055e-015 -0.270637 0.0385276 -2.90317 37.996 -39.132 42.2066 16.9812 2.01093 4.60935 -17.6769 -0.0794711 -12.3325 4.88131e-007 -2.62998e-007 5.03081e-007 -1.51879e-006 2.38566e-007 6.76415e-007 -3.18055e-015 -9.54166e-015 -0 
0.0892621 18.2604 -3.43509 -0.0123412 -0.00673219 -0.0372356 -6.52141e-020 0 -1.2424e-017 -18.8327 -4.31475 0.776432 0.208767 7.63867 3.27855 -1.0046 -3.27207 -4.10082 -7.67171e-015 4.30105e-015 -2.50779e-014 -6.52141e-020 0 -1.2424e-017 21.5711 -6.84837 0.557342 -0.935359 9.23947 -14.5578 2.53772 -1.95318 14.2257 -5.42767e-015 1.96548e-014 9.98474e-014 -6.52141e-020 0 -1.2424e-017 0.0181526 0.0521244 0.0182883 0.0283436 -0.0263621 0.012748 -0.0398016 -15.98 0.00442045 -0.0440799 21.02 0.0154733 0.0261044 10.9923 -0.0376079 0.309244 0.00142665 3.43835 -23.8583 -39.9387 -23.9991 -8.51047 44.7639 0.00527018 4.24454 -1.74151 2.03155 3.33473e-008 -2.43609e-007 1.67066e-006 8.74147e-007 -7.19699e-008 -2.53835e-008 1.81391e-015 -6.95746e-016 -0 -0.270636 0.0385275 -2.90479 38.0143 -39.1515 42.2575 16.9606 2.01894 4.60159 -17.6663 -0.0794599 -12.3695 4.88131e-007 -2.62998e-007 5.03081e-007 -1.51879e-006 2.38566e-007 6.76415e-007 3.18055e-015 0 3.18055e-015 
0.0894459 18.261 -3.43405 -0.0165679 -0.00824116 -0.0509485 6.18776e-019 3.10601e-018 -0 -18.8092 -4.31371 0.807288 0.18449 7.62381 3.30449 -1.01576 -3.26038 -4.15079 5.44481e-015 4.29949e-015 -2.5081e-014 6.18776e-019 3.10601e-018 -0 21.5647 -6.78973 0.536876 -0.936881 9.15729 -14.5284 2.60576 -1.96026 14.2281 -5.72672e-015 1.97294e-014 9.9828e-014 6.18776e-019 3.10601e-018 -0 0.0271004 0.0729008 0.0250124 0.0369178 -0.036818 0.0177042 -0.0556539 -15.9718 0.00442027 -0.0610907 21.0282 0.0211541 0.0354638 10.991 -0.0531442 0.309784 0.00142665 3.43901 -23.8299 -39.9406 -23.9987 -8.51141 44.7548 0.00526934 4.20522 -1.73831 2.0157 3.33473e-008 -2.43609e-007 1.67066e-006 8.74147e-007 -7.19698e-008 -2.53835e-008 8.69683e-016 4.96962e-016 -0 -0.270635 0.0385274 -2.907 38.0277 -39.1698 42.3014 16.9433 2.02216 4.59595 -17.6593 -0.0794513 -12.3978 4.88131e-007 -2.62998e-007 5.03081e-007 -1.51879e-006 2.38566e-007 6.76415e-007 -3.18055e-015 -3.18055e-015 -0 
